<svg width="210" height="210" viewBox="0 0 210 210" fill="none" xmlns="http://www.w3.org/2000/svg">
<path d="M89.6875 17.5C103.407 17.4985 116.843 21.4067 128.421 28.7668C140 36.1269 149.241 46.634 155.062 59.0573C160.884 71.4807 163.044 85.3057 161.291 98.9128C159.538 112.52 153.943 125.346 145.163 135.887L194.95 185.675C195.814 186.477 196.445 187.497 196.778 188.628C197.111 189.759 197.132 190.959 196.84 192.101C196.548 193.243 195.953 194.285 195.119 195.118C194.284 195.95 193.24 196.542 192.098 196.831C190.957 197.123 189.758 197.102 188.628 196.771C187.498 196.44 186.478 195.811 185.675 194.95L135.888 145.162C126.979 152.58 116.414 157.744 105.088 160.215C93.7613 162.687 82.0063 162.394 70.8169 159.362C59.6275 156.33 49.333 150.648 40.8041 142.796C32.2751 134.944 25.7627 125.153 21.8177 114.252C17.8728 103.351 16.6112 91.6606 18.1398 80.1689C19.6685 68.6772 23.9423 57.7227 30.5998 48.2321C37.2573 38.7414 46.1027 30.9937 56.3876 25.6444C66.6726 20.2951 78.0946 17.5015 89.6875 17.5ZM30.625 89.6875C30.625 97.4437 32.1527 105.124 35.1209 112.29C38.089 119.456 42.4396 125.967 47.924 131.451C53.4085 136.935 59.9195 141.286 67.0853 144.254C74.2511 147.222 81.9313 148.75 89.6875 148.75C97.4437 148.75 105.124 147.222 112.29 144.254C119.456 141.286 125.967 136.935 131.451 131.451C136.935 125.967 141.286 119.456 144.254 112.29C147.222 105.124 148.75 97.4437 148.75 89.6875C148.75 74.0232 142.527 59.0004 131.451 47.924C120.375 36.8476 105.352 30.625 89.6875 30.625C74.0232 30.625 59.0004 36.8476 47.924 47.924C36.8476 59.0004 30.625 74.0232 30.625 89.6875Z" fill="#1E90FF"/>
<ellipse cx="89" cy="89.5" rx="61" ry="59.5" fill="#0D47A1"/>
<mask id="mask0_81_56" style="mask-type:alpha" maskUnits="userSpaceOnUse" x="28" y="30" width="122" height="119">
<ellipse opacity="0.9" cx="89" cy="89.5" rx="61" ry="59.5" fill="#2196F3"/>
</mask>
<g mask="url(#mask0_81_56)">
<line x1="150" y1="86.5" x2="28" y2="86.5" stroke="white" stroke-opacity="0.3"/>
<line x1="150" y1="71.5" x2="28" y2="71.5" stroke="white" stroke-opacity="0.3"/>
<line x1="150" y1="56.5" x2="28" y2="56.5" stroke="white" stroke-opacity="0.3"/>
<line x1="150" y1="41.5" x2="28" y2="41.5" stroke="white" stroke-opacity="0.3"/>
<line x1="150" y1="101.5" x2="28" y2="101.5" stroke="white" stroke-opacity="0.3"/>
<line x1="150" y1="116.5" x2="28" y2="116.5" stroke="white" stroke-opacity="0.3"/>
<line x1="150" y1="130.5" x2="28" y2="130.5" stroke="white" stroke-opacity="0.3"/>
<line x1="150" y1="143.5" x2="28" y2="143.5" stroke="white" stroke-opacity="0.3"/>
<line x1="87.5" y1="26" x2="87.5" y2="149" stroke="white" stroke-opacity="0.3"/>
<line x1="72.5" y1="26" x2="72.5" y2="149" stroke="white" stroke-opacity="0.3"/>
<line x1="57.5" y1="26" x2="57.5" y2="149" stroke="white" stroke-opacity="0.3"/>
<line x1="42.5" y1="26" x2="42.5" y2="145" stroke="white" stroke-opacity="0.3"/>
<line x1="28.5" y1="28" x2="28.5" y2="147" stroke="white" stroke-opacity="0.3"/>
<line x1="102.5" y1="26" x2="102.5" y2="149" stroke="white" stroke-opacity="0.3"/>
<line x1="117.5" y1="26" x2="117.5" y2="149" stroke="white" stroke-opacity="0.3"/>
<line x1="132.5" y1="26" x2="132.5" y2="149" stroke="white" stroke-opacity="0.3"/>
<line x1="147.5" y1="26" x2="147.5" y2="149" stroke="white" stroke-opacity="0.3"/>
</g>
<path d="M67.4925 107.33L41.6625 91.86C40.4025 91.0667 39.7725 89.9933 39.7725 88.64C39.7725 87.4267 40.4025 86.3767 41.6625 85.49L67.4925 69.95C68.7525 69.2967 69.9658 69.2967 71.1325 69.95C72.2992 70.5567 72.8825 71.5367 72.8825 72.89C72.8825 74.29 72.2992 75.34 71.1325 76.04L47.5425 90.04V87.03L71.1325 101.17C72.2992 101.917 72.8825 102.943 72.8825 104.25C72.8825 105.183 72.5792 105.977 71.9725 106.63C71.4125 107.237 70.7125 107.633 69.8725 107.82C69.0325 107.96 68.2392 107.797 67.4925 107.33ZM78.7538 118.18C77.4471 118.18 76.4438 117.643 75.7438 116.57C75.0904 115.543 75.0204 114.4 75.5338 113.14L96.6038 60.43C96.8838 59.7767 97.3271 59.2633 97.9338 58.89C98.5404 58.5167 99.1938 58.33 99.8938 58.33C101.107 58.33 102.064 58.8433 102.764 59.87C103.51 60.85 103.627 62.0167 103.114 63.37L82.0438 116.08C81.7638 116.827 81.2971 117.363 80.6438 117.69C80.0371 118.017 79.4071 118.18 78.7538 118.18ZM110.656 107.33C109.91 107.797 109.116 107.96 108.276 107.82C107.436 107.633 106.713 107.237 106.106 106.63C105.546 105.977 105.266 105.183 105.266 104.25C105.266 102.943 105.85 101.917 107.016 101.17L130.606 87.03V90.04L107.016 76.04C105.85 75.34 105.266 74.29 105.266 72.89C105.266 71.5367 105.85 70.5567 107.016 69.95C108.183 69.2967 109.396 69.2967 110.656 69.95L136.486 85.49C137.746 86.3767 138.376 87.4267 138.376 88.64C138.376 89.9933 137.746 91.0667 136.486 91.86L110.656 107.33Z" fill="#E0E8F0"/>
</svg>
