<svg width="210" height="203" viewBox="0 0 210 203" fill="none" xmlns="http://www.w3.org/2000/svg">
<path d="M89.6875 10.5C103.407 10.4985 116.843 14.4067 128.421 21.7668C140 29.1269 149.241 39.634 155.062 52.0573C160.884 64.4807 163.044 78.3057 161.291 91.9128C159.538 105.52 153.943 118.346 145.163 128.887L194.95 178.675C195.814 179.477 196.445 180.497 196.778 181.628C197.111 182.759 197.132 183.959 196.84 185.101C196.548 186.243 195.953 187.285 195.119 188.118C194.284 188.95 193.24 189.542 192.098 189.831C190.957 190.123 189.758 190.102 188.628 189.771C187.498 189.44 186.478 188.811 185.675 187.95L135.888 138.162C126.979 145.58 116.414 150.744 105.088 153.215C93.7613 155.687 82.0063 155.394 70.8169 152.362C59.6275 149.33 49.333 143.648 40.8041 135.796C32.2751 127.944 25.7627 118.153 21.8177 107.252C17.8728 96.3514 16.6112 84.6606 18.1398 73.1689C19.6685 61.6772 23.9423 50.7227 30.5998 41.2321C37.2573 31.7414 46.1027 23.9937 56.3876 18.6444C66.6726 13.2951 78.0946 10.5015 89.6875 10.5ZM30.625 82.6875C30.625 90.4437 32.1527 98.1239 35.1209 105.29C38.089 112.456 42.4396 118.967 47.924 124.451C53.4085 129.935 59.9195 134.286 67.0853 137.254C74.2511 140.222 81.9313 141.75 89.6875 141.75C97.4437 141.75 105.124 140.222 112.29 137.254C119.456 134.286 125.967 129.935 131.451 124.451C136.935 118.967 141.286 112.456 144.254 105.29C147.222 98.1239 148.75 90.4437 148.75 82.6875C148.75 67.0231 142.527 52.0004 131.451 40.924C120.375 29.8476 105.352 23.625 89.6875 23.625C74.0232 23.625 59.0004 29.8476 47.924 40.924C36.8476 52.0004 30.625 67.0231 30.625 82.6875Z" fill="#007BFF"/>
<path opacity="0.9" d="M149.5 82.5C149.5 115.361 123.689 142 90 142C56.3106 142 30.5 115.361 30.5 82.5C30.5 49.6391 56.3106 23 90 23C123.689 23 149.5 49.6391 149.5 82.5Z" fill="#2196F3"/>
<mask id="mask0_81_53" style="mask-type:alpha" maskUnits="userSpaceOnUse" x="30" y="23" width="120" height="119">
<ellipse cx="90" cy="82.5" rx="60" ry="59.5" fill="#D9D9D9"/>
</mask>
<g mask="url(#mask0_81_53)">
<line x1="151" y1="83.5" x2="29" y2="83.5" stroke="white" stroke-opacity="0.19"/>
<line x1="151" y1="68.5" x2="29" y2="68.5" stroke="white" stroke-opacity="0.19"/>
<line x1="151" y1="53.5" x2="29" y2="53.5" stroke="white" stroke-opacity="0.19"/>
<line x1="151" y1="38.5" x2="29" y2="38.5" stroke="white" stroke-opacity="0.19"/>
<line x1="151" y1="23.5" x2="29" y2="23.5" stroke="white" stroke-opacity="0.19"/>
<line x1="151" y1="98.5" x2="29" y2="98.5" stroke="white" stroke-opacity="0.19"/>
<line x1="151" y1="113.5" x2="29" y2="113.5" stroke="white" stroke-opacity="0.19"/>
<line x1="151" y1="127.5" x2="29" y2="127.5" stroke="white" stroke-opacity="0.19"/>
<line x1="151" y1="140.5" x2="29" y2="140.5" stroke="white" stroke-opacity="0.19"/>
<line x1="88.5" y1="23" x2="88.5" y2="146" stroke="white" stroke-opacity="0.19"/>
<line x1="73.5" y1="23" x2="73.5" y2="146" stroke="white" stroke-opacity="0.19"/>
<line x1="58.5" y1="23" x2="58.5" y2="146" stroke="white" stroke-opacity="0.19"/>
<line x1="43.5" y1="23" x2="43.5" y2="142" stroke="white" stroke-opacity="0.19"/>
<line x1="103.5" y1="23" x2="103.5" y2="146" stroke="white" stroke-opacity="0.19"/>
<line x1="118.5" y1="23" x2="118.5" y2="146" stroke="white" stroke-opacity="0.19"/>
<line x1="133.5" y1="23" x2="133.5" y2="146" stroke="white" stroke-opacity="0.19"/>
<line x1="148.5" y1="23" x2="148.5" y2="146" stroke="white" stroke-opacity="0.19"/>
</g>
<path d="M68.4925 100.33L42.6625 84.86C41.4025 84.0667 40.7725 82.9933 40.7725 81.64C40.7725 80.4267 41.4025 79.3767 42.6625 78.49L68.4925 62.95C69.7525 62.2967 70.9658 62.2967 72.1325 62.95C73.2992 63.5567 73.8825 64.5367 73.8825 65.89C73.8825 67.29 73.2992 68.34 72.1325 69.04L48.5425 83.04V80.03L72.1325 94.17C73.2992 94.9167 73.8825 95.9433 73.8825 97.25C73.8825 98.1833 73.5792 98.9767 72.9725 99.63C72.4125 100.237 71.7125 100.633 70.8725 100.82C70.0325 100.96 69.2392 100.797 68.4925 100.33ZM79.7538 111.18C78.4471 111.18 77.4438 110.643 76.7438 109.57C76.0904 108.543 76.0204 107.4 76.5338 106.14L97.6038 53.43C97.8838 52.7767 98.3271 52.2633 98.9338 51.89C99.5404 51.5167 100.194 51.33 100.894 51.33C102.107 51.33 103.064 51.8433 103.764 52.87C104.51 53.85 104.627 55.0167 104.114 56.37L83.0438 109.08C82.7638 109.827 82.2971 110.363 81.6438 110.69C81.0371 111.017 80.4071 111.18 79.7538 111.18ZM111.656 100.33C110.91 100.797 110.116 100.96 109.276 100.82C108.436 100.633 107.713 100.237 107.106 99.63C106.546 98.9767 106.266 98.1833 106.266 97.25C106.266 95.9433 106.85 94.9167 108.016 94.17L131.606 80.03V83.04L108.016 69.04C106.85 68.34 106.266 67.29 106.266 65.89C106.266 64.5367 106.85 63.5567 108.016 62.95C109.183 62.2967 110.396 62.2967 111.656 62.95L137.486 78.49C138.746 79.3767 139.376 80.4267 139.376 81.64C139.376 82.9933 138.746 84.0667 137.486 84.86L111.656 100.33Z" fill="white"/>
</svg>
